<svg width="16" height="16" viewBox="0 0 16 16" fill="none" xmlns="http://www.w3.org/2000/svg">
<rect width="16" height="16" rx="8" fill="#0056FD" fill-opacity="0.08"/>
<path d="M7.99992 8.33332C8.18401 8.33332 8.33325 8.18408 8.33325 7.99999C8.33325 7.81589 8.18401 7.66666 7.99992 7.66666C7.81582 7.66666 7.66659 7.81589 7.66659 7.99999C7.66659 8.18408 7.81582 8.33332 7.99992 8.33332Z" stroke="#0056FD" stroke-linecap="round" stroke-linejoin="round"/>
<path d="M10.3333 8.33332C10.5173 8.33332 10.6666 8.18408 10.6666 7.99999C10.6666 7.81589 10.5173 7.66666 10.3333 7.66666C10.1492 7.66666 9.99992 7.81589 9.99992 7.99999C9.99992 8.18408 10.1492 8.33332 10.3333 8.33332Z" stroke="#0056FD" stroke-linecap="round" stroke-linejoin="round"/>
<path d="M5.66659 8.33332C5.85068 8.33332 5.99992 8.18408 5.99992 7.99999C5.99992 7.81589 5.85068 7.66666 5.66659 7.66666C5.48249 7.66666 5.33325 7.81589 5.33325 7.99999C5.33325 8.18408 5.48249 8.33332 5.66659 8.33332Z" stroke="#0056FD" stroke-linecap="round" stroke-linejoin="round"/>
</svg>
